<svg width="403" height="45" viewBox="0 0 403 45" fill="none" xmlns="http://www.w3.org/2000/svg">
<path d="M3.51719 33.4937C2.62849 33.4608 1.87144 33.1481 1.24605 32.5556C0.620663 31.9303 0.291512 31.1732 0.258597 30.2845V17.9907C0.291512 15.6537 0.620663 13.4484 1.24605 11.3748C1.90435 9.30112 2.97409 7.55661 4.45527 6.14126C5.96937 4.693 7.87845 3.90304 10.1825 3.77138H29.2404C30.1291 3.80429 30.8697 4.13344 31.4621 4.75883C32.0875 5.3513 32.4167 6.09189 32.4496 6.9806C32.4496 7.90222 32.1369 8.69219 31.5115 9.35049C30.919 10.0088 30.162 10.3544 29.2404 10.3873H11.8612C10.6104 10.4531 9.57358 10.9304 8.7507 11.8191C7.92782 12.7078 7.40118 13.7282 7.17077 14.8802C6.97328 15.9993 6.89099 17.2337 6.92391 18.5832V30.2845C6.89099 31.2061 6.54538 31.9796 5.88708 32.605C5.22878 33.1975 4.43882 33.4937 3.51719 33.4937ZM9.24442 20.5087C9.24442 19.5871 9.57358 18.8136 10.2319 18.1882C10.8573 17.5299 11.6308 17.2007 12.5524 17.2007H29.2404C30.162 17.2007 30.9355 17.5299 31.5609 18.1882C32.2192 18.8136 32.5483 19.5871 32.5483 20.5087C32.5483 21.4303 32.2356 22.2203 31.6102 22.8786C30.9519 23.504 30.162 23.8167 29.2404 23.8167H12.5524C11.6308 23.8167 10.8408 23.504 10.1825 22.8786C9.55712 22.2203 9.24442 21.4303 9.24442 20.5087ZM40.448 9.99233C41.3367 10.0252 42.0937 10.3544 42.7191 10.9798C43.3445 11.5723 43.6736 12.3128 43.7066 13.2016V30.2845C43.5091 32.2594 42.4229 33.3292 40.448 33.4937C39.5263 33.4937 38.7199 33.1975 38.0287 32.605C37.3704 31.9796 37.0412 31.2061 37.0412 30.2845V13.2016C37.0742 12.2799 37.4198 11.5229 38.0781 10.9304C38.7364 10.305 39.5263 9.99233 40.448 9.99233ZM36.3007 3.57388C36.3007 2.65226 36.6956 1.8623 37.4856 1.204C38.2756 0.545694 39.2301 0.216543 40.3492 0.216543C41.4683 0.216543 42.4229 0.545694 43.2128 1.204C44.0028 1.8623 44.3978 2.65226 44.3978 3.57388C44.3978 4.52842 44.0028 5.33484 43.2128 5.99315C42.4229 6.65145 41.4683 6.9806 40.3492 6.9806C39.2301 6.9806 38.2756 6.65145 37.4856 5.99315C36.6956 5.33484 36.3007 4.52842 36.3007 3.57388ZM77.6256 37.1967V18.3857C77.6256 17.5628 77.1977 17.1349 76.3419 17.102H59.0615C58.4361 17.1349 57.893 17.4147 57.4322 17.9413C56.9713 18.4351 56.6257 19.0275 56.3953 19.7187C56.1978 20.3771 56.0991 21.0518 56.0991 21.743C56.0991 22.4013 56.1978 23.0761 56.3953 23.7673C56.6257 24.4256 56.9713 25.0181 57.4322 25.5447C57.893 26.0385 58.4361 26.2853 59.0615 26.2853H71.7009C72.6225 26.2853 73.396 26.6145 74.0214 27.2728C74.6797 27.8982 75.0088 28.6717 75.0088 29.5933C75.0088 30.5149 74.6797 31.2884 74.0214 31.9138C73.396 32.5721 72.6225 32.9013 71.7009 32.9013H59.2589C56.9549 32.8683 55.0458 32.2265 53.5317 30.9757C52.0505 29.692 50.9808 28.2602 50.3225 26.6803C49.6971 25.0675 49.3844 23.4052 49.3844 21.6937C49.3844 20.0479 49.7136 18.4351 50.3719 16.8551C51.0302 15.2423 52.0999 13.8105 53.5811 12.5597C55.0623 11.276 57.2511 10.5848 60.1477 10.4861H80.8842C81.8058 10.4861 82.5958 10.7988 83.2541 11.4241C83.9124 12.0166 84.258 12.7737 84.2909 13.6953V37.1967C84.2909 38.1183 83.9453 38.8753 83.2541 39.4678C82.5958 40.0932 81.8058 40.4059 80.8842 40.4059C78.9093 40.2413 77.8231 39.1716 77.6256 37.1967ZM100.979 32.9013C98.0823 32.8025 95.8935 32.1277 94.4123 30.877C92.9311 29.5933 91.8614 28.1615 91.2031 26.5816C90.5448 24.9687 90.2156 23.3394 90.2156 21.6937C90.2156 19.9821 90.5283 18.3363 91.1537 16.7564C91.812 15.1435 92.8817 13.7117 94.3629 12.461C95.877 11.1773 97.7861 10.519 100.09 10.4861H116.087C118.391 10.519 120.284 11.1773 121.765 12.461C123.279 13.7117 124.349 15.1435 124.974 16.7564C125.632 18.3363 125.961 19.9821 125.961 21.6937C125.961 23.3394 125.632 24.9687 124.974 26.5816C124.316 28.1615 123.246 29.5933 121.765 30.877C120.284 32.1277 118.095 32.8025 115.198 32.9013H100.979ZM99.8927 17.102C99.2673 17.102 98.7242 17.3653 98.2634 17.892C97.8026 18.3857 97.4569 18.9782 97.2265 19.6694C97.029 20.3277 96.9303 20.986 96.9303 21.6443C96.9303 22.3355 97.029 23.0267 97.2265 23.7179C97.4569 24.3762 97.8026 24.9687 98.2634 25.4954C98.7242 25.9891 99.2673 26.2524 99.8927 26.2853H116.284C116.91 26.2524 117.453 25.9891 117.914 25.4954C118.375 24.9687 118.704 24.3762 118.901 23.7179C119.132 23.0267 119.247 22.3355 119.247 21.6443C119.247 20.986 119.132 20.3277 118.901 19.6694C118.704 18.9782 118.375 18.3857 117.914 17.892C117.453 17.3653 116.91 17.102 116.284 17.102H99.8927ZM162.991 13.3497C162.991 14.1726 162.662 14.8638 162.003 15.4233C161.378 15.95 160.605 16.2133 159.683 16.2133H138.798C138.37 16.2133 138.025 16.2956 137.761 16.4602C137.498 16.6247 137.301 16.8058 137.169 17.0033C137.037 17.1678 136.972 17.3159 136.972 17.4476C136.972 17.6122 137.037 17.7932 137.169 17.9907C137.301 18.1553 137.498 18.3199 137.761 18.4844C138.025 18.6161 138.37 18.6984 138.798 18.7313H154.943C157.017 18.7642 158.728 19.1757 160.078 19.9656C161.427 20.7227 162.382 21.6278 162.942 22.6811C163.534 23.7015 163.83 24.7383 163.83 25.7916C163.83 26.812 163.534 27.8488 162.942 28.9021C162.349 29.9224 161.378 30.8276 160.029 31.6176C158.712 32.3746 157.017 32.7531 154.943 32.7531C154.581 32.7861 154.318 32.8025 154.153 32.8025H134.997C134.075 32.8025 133.285 32.5392 132.627 32.0125C132.001 31.453 131.689 30.7782 131.689 29.9883C131.689 29.1654 132.018 28.4742 132.676 27.9146C133.302 27.388 134.075 27.1247 134.997 27.1247H155.338C155.832 27.1576 156.227 27.0917 156.523 26.9272C156.852 26.7626 157.099 26.5816 157.264 26.3841C157.428 26.1866 157.511 25.9891 157.511 25.7916C157.511 25.6928 157.428 25.5283 157.264 25.2979C157.099 25.0345 156.852 24.8371 156.523 24.7054C156.227 24.5408 155.832 24.4421 155.338 24.4092H139.144C137.235 24.3762 135.655 23.9813 134.404 23.2242C133.153 22.4342 132.265 21.5291 131.738 20.5087C131.211 19.4883 130.948 18.468 130.948 17.4476C130.948 16.4272 131.211 15.4233 131.738 14.4359C132.298 13.4155 133.186 12.5433 134.404 11.8191C135.655 11.0621 137.235 10.6506 139.144 10.5848C139.473 10.5519 139.72 10.5354 139.885 10.5354H159.683C160.605 10.5354 161.378 10.8152 162.003 11.3748C162.662 11.9014 162.991 12.5597 162.991 13.3497ZM180.025 2.98141C180.946 2.98141 181.736 3.29411 182.394 3.91949C183.053 4.51197 183.398 5.26901 183.431 6.19064V10.4861H200.218C201.14 10.4861 201.93 10.7988 202.588 11.4241C203.213 12.0824 203.526 12.8724 203.526 13.794C203.526 14.7157 203.197 15.5056 202.538 16.1639C201.913 16.7893 201.14 17.102 200.218 17.102H183.431V18.0895C183.398 19.439 183.481 20.6897 183.678 21.8418C183.908 22.9609 184.435 23.9648 185.258 24.8535C186.081 25.7422 187.118 26.2195 188.368 26.2853H200.415C201.337 26.3182 202.094 26.6638 202.687 27.3221C203.312 27.9804 203.625 28.7704 203.625 29.692C203.592 30.5807 203.263 31.3378 202.637 31.9632C202.045 32.5556 201.304 32.8683 200.415 32.9013H186.69C184.386 32.7696 182.477 31.9961 180.963 30.5807C179.481 29.1325 178.412 27.3715 177.753 25.2979C177.128 23.2242 176.799 21.0189 176.766 18.6819V17.102H171.088C170.166 17.102 169.393 16.7728 168.768 16.1145C168.109 15.4892 167.78 14.7157 167.78 13.794C167.78 12.8724 168.093 12.0989 168.718 11.4735C169.376 10.8152 170.166 10.4861 171.088 10.4861H176.766V6.19064C176.799 5.30193 177.128 4.56134 177.753 3.96887C178.379 3.34348 179.136 3.01433 180.025 2.98141ZM236.951 2.98141C237.873 2.98141 238.663 3.29411 239.321 3.91949C239.979 4.51197 240.325 5.26901 240.358 6.19064V18.0895C240.325 19.439 240.407 20.6897 240.605 21.8418C240.835 22.9609 241.362 23.9648 242.185 24.8535C243.008 25.7422 244.044 26.2195 245.295 26.2853H261.094C262.016 26.3182 262.773 26.6638 263.366 27.3221C263.991 27.9804 264.304 28.7704 264.304 29.692C264.271 30.5807 263.942 31.3378 263.316 31.9632C262.724 32.5556 261.983 32.8683 261.094 32.9013H243.617C241.312 32.7696 239.403 31.9961 237.889 30.5807C236.408 29.1325 235.338 27.3715 234.68 25.2979C234.055 23.2242 233.726 21.0189 233.693 18.6819V6.19064C233.726 5.30193 234.055 4.56134 234.68 3.96887C235.305 3.34348 236.063 3.01433 236.951 2.98141ZM272.401 9.99233C273.29 10.0252 274.047 10.3544 274.672 10.9798C275.297 11.5723 275.626 12.3128 275.659 13.2016V30.2845C275.462 32.2594 274.376 33.3292 272.401 33.4937C271.479 33.4937 270.673 33.1975 269.982 32.605C269.323 31.9796 268.994 31.2061 268.994 30.2845V13.2016C269.027 12.2799 269.373 11.5229 270.031 10.9304C270.689 10.305 271.479 9.99233 272.401 9.99233ZM268.253 3.57388C268.253 2.65226 268.648 1.8623 269.438 1.204C270.228 0.545694 271.183 0.216543 272.302 0.216543C273.421 0.216543 274.376 0.545694 275.166 1.204C275.956 1.8623 276.351 2.65226 276.351 3.57388C276.351 4.52842 275.956 5.33484 275.166 5.99315C274.376 6.65145 273.421 6.9806 272.302 6.9806C271.183 6.9806 270.228 6.65145 269.438 5.99315C268.648 5.33484 268.253 4.52842 268.253 3.57388ZM289.484 30.2845C287.805 28.0134 286.126 25.0345 284.448 21.348L281.239 14.4359C281.074 14.0738 280.975 13.6788 280.942 13.2509C280.876 12.3293 281.156 11.5393 281.782 10.881C282.407 10.2227 283.23 9.89359 284.25 9.89359C285.369 9.89359 286.192 10.124 286.719 10.5848C287.278 11.0127 287.723 11.5723 288.052 12.2635L290.372 17.9907C290.965 19.3402 291.541 20.6239 292.101 21.8418C292.693 23.0267 293.351 24.1129 294.075 25.1004C294.832 26.0878 295.672 26.6145 296.593 26.6803C297.482 26.6145 298.321 26.0878 299.111 25.1004C299.803 24.1129 300.428 23.0267 300.988 21.8418C301.58 20.6239 302.173 19.3402 302.765 17.9907L305.086 12.2635C305.415 11.5723 305.843 11.0127 306.369 10.5848C306.929 10.124 307.768 9.89359 308.887 9.89359C309.908 9.89359 310.73 10.2227 311.356 10.881C311.981 11.5393 312.261 12.3293 312.195 13.2509C312.162 13.6788 312.064 14.0738 311.899 14.4359L308.69 21.348C307.011 25.0345 305.332 28.0134 303.654 30.2845C302.041 32.5227 299.687 33.6583 296.593 33.6912C293.466 33.6583 291.097 32.5227 289.484 30.2845ZM321.082 9.99233C321.971 10.0252 322.728 10.3544 323.353 10.9798C323.979 11.5723 324.308 12.3128 324.341 13.2016V30.2845C324.143 32.2594 323.057 33.3292 321.082 33.4937C320.161 33.4937 319.354 33.1975 318.663 32.605C318.005 31.9796 317.676 31.2061 317.676 30.2845V13.2016C317.708 12.2799 318.054 11.5229 318.712 10.9304C319.371 10.305 320.161 9.99233 321.082 9.99233ZM316.935 3.57388C316.935 2.65226 317.33 1.8623 318.12 1.204C318.91 0.545694 319.864 0.216543 320.984 0.216543C322.103 0.216543 323.057 0.545694 323.847 1.204C324.637 1.8623 325.032 2.65226 325.032 3.57388C325.032 4.52842 324.637 5.33484 323.847 5.99315C323.057 6.65145 322.103 6.9806 320.984 6.9806C319.864 6.9806 318.91 6.65145 318.12 5.99315C317.33 5.33484 316.935 4.52842 316.935 3.57388ZM346.114 9.74547C347.826 9.74547 349.504 9.94296 351.15 10.3379C352.829 10.7329 354.425 11.3254 355.939 12.1154C357.453 12.8724 358.787 13.8928 359.939 15.1765C361.124 16.4602 361.765 17.9907 361.864 19.7681V21.8418V30.2845C361.667 32.2594 360.58 33.3292 358.605 33.4937C357.684 33.4937 356.877 33.1975 356.186 32.605C355.528 31.9796 355.199 31.2061 355.199 30.2845V28.1121V21.2987C355.133 20.2783 354.738 19.439 354.014 18.7807C353.323 18.0895 352.533 17.5464 351.644 17.1514C350.788 16.7564 349.883 16.4602 348.928 16.2627C348.007 16.0652 347.069 15.9664 346.114 15.9664C345.16 15.9664 344.205 16.0652 343.251 16.2627C342.329 16.4602 341.424 16.7564 340.535 17.1514C339.679 17.5464 338.889 18.0895 338.165 18.7807C337.474 19.439 337.095 20.2783 337.03 21.2987V28.1121V30.2845C336.865 32.2594 335.795 33.3292 333.82 33.4937C332.899 33.4937 332.092 33.1975 331.401 32.605C330.743 31.9796 330.414 31.2061 330.414 30.2845V21.8418V19.7681C330.512 17.9907 331.138 16.4602 332.29 15.1765C333.442 13.8928 334.775 12.8724 336.289 12.1154C337.803 11.3254 339.383 10.7329 341.029 10.3379C342.707 9.94296 344.403 9.74547 346.114 9.74547ZM395.832 18.3857C395.832 17.5628 395.405 17.1349 394.549 17.102H377.268C376.643 17.1349 376.1 17.4147 375.639 17.9413C375.178 18.4351 374.833 19.0275 374.602 19.7187C374.405 20.3771 374.306 21.0518 374.306 21.743C374.306 22.4013 374.405 23.0761 374.602 23.7673C374.833 24.4256 375.178 25.0181 375.639 25.5447C376.1 26.0385 376.643 26.2853 377.268 26.2853H389.908C390.829 26.2853 391.603 26.6145 392.228 27.2728C392.887 27.8982 393.216 28.6717 393.216 29.5933C393.216 30.5149 392.887 31.2884 392.228 31.9138C391.603 32.5721 390.829 32.9013 389.908 32.9013H377.466C375.162 32.8683 373.253 32.2265 371.739 30.9757C370.257 29.692 369.188 28.2602 368.529 26.6803C367.904 25.0675 367.591 23.4052 367.591 21.6937C367.591 20.0479 367.92 18.4351 368.579 16.8551C369.237 15.2423 370.307 13.8105 371.788 12.5597C373.269 11.276 375.458 10.5848 378.355 10.4861H399.091C400.013 10.4861 400.803 10.7988 401.461 11.4241C402.119 12.0166 402.465 12.7737 402.498 13.6953V29.297C402.498 31.9303 402.136 34.4154 401.412 36.7523C400.753 38.826 399.667 40.5705 398.153 41.9858C396.672 43.4341 394.779 44.2241 392.475 44.3557H375.392C374.503 44.3228 373.746 43.9936 373.121 43.3683C372.529 42.7758 372.216 42.0352 372.183 41.1465C372.183 40.2249 372.479 39.4349 373.072 38.7766C373.697 38.1183 374.471 37.7727 375.392 37.7398H390.796C392.047 37.6739 393.084 37.1967 393.907 36.308C394.73 35.4193 395.256 34.3824 395.487 33.1975C395.717 32.0125 395.832 30.482 395.832 28.6058V18.3857Z" fill="#327ACE"/>
</svg>
